<?xml version="1.0" standalone="no"?>
<!DOCTYPE svg PUBLIC "-//W3C//DTD SVG 20010904//EN"
 "http://www.w3.org/TR/2001/REC-SVG-20010904/DTD/svg10.dtd">
<svg version="1.0" xmlns="http://www.w3.org/2000/svg"
 width="260.000000pt" height="260.000000pt" viewBox="0 0 260.000000 260.000000"
 preserveAspectRatio="xMidYMid meet">
<metadata>
Created by potrace 1.11, written by Peter Selinger 2001-2013
</metadata>
<g transform="translate(0.000000,260.000000) scale(0.100000,-0.100000)"
fill="#000000" stroke="none">
<path d="M2142 2245 c-46 -16 -81 -46 -109 -92 -49 -84 -69 -225 -38 -270 33
-47 124 -54 230 -18 110 38 169 109 167 201 -1 62 -19 100 -66 142 -54 47
-118 60 -184 37z"/>
<path d="M1209 1826 c-2 -2 -40 -6 -84 -10 -44 -3 -91 -8 -105 -10 -14 -3 -38
-7 -55 -9 -201 -31 -447 -124 -597 -224 -202 -135 -316 -305 -324 -485 -6
-145 47 -266 171 -392 97 -98 228 -181 385 -244 64 -25 259 -80 310 -88 196
-27 253 -31 420 -29 102 2 196 6 210 8 14 3 59 11 100 17 129 20 325 79 439
134 456 217 611 570 392 888 -36 52 -55 55 -28 5 17 -33 22 -61 24 -128 2 -80
-1 -92 -32 -157 -71 -148 -242 -277 -475 -355 -87 -30 -153 -48 -195 -53 -16
-3 -39 -7 -51 -9 -99 -21 -422 -28 -539 -11 -89 13 -95 14 -165 29 -279 62
-512 213 -597 385 -24 50 -28 68 -28 147 0 74 4 99 24 140 27 56 81 127 125
164 15 14 34 30 40 37 43 43 209 129 316 164 88 29 218 61 273 66 28 3 53 7
56 9 5 6 -4 16 -10 11z"/>
<path d="M1258 1823 c6 -2 18 -2 25 0 6 3 1 5 -13 5 -14 0 -19 -2 -12 -5z"/>
<path d="M1610 1719 c-127 -34 -225 -77 -330 -143 -119 -75 -169 -125 -212
-215 -27 -58 -31 -77 -32 -151 0 -99 19 -152 80 -220 115 -127 338 -139 488
-24 49 37 82 81 139 184 37 67 104 226 111 264 2 12 7 32 10 46 13 52 13 135
0 172 -25 70 -72 99 -162 97 -31 0 -73 -5 -92 -10z"/>
</g>
</svg>
